<svg width="32" height="32" viewBox="0 0 32 32" fill="none" xmlns="http://www.w3.org/2000/svg">
<g clip-path="url(#clip0_421_23)">
<path d="M0 0L8.34756 -4.10772e-10L8.34756 12.1553L8.70194 12.1553C9.52882 10.774 10.6313 9.82687 11.9307 9.31382C13.2301 8.80077 15.2776 8.56398 18.0733 8.56398C20.8689 8.56398 23.0345 8.72184 24.6883 9.03757C26.3421 9.35329 27.6808 9.9058 28.6258 10.6162C29.7283 11.445 30.4765 12.5105 30.8702 13.8918C31.264 15.2731 31.4609 17.3648 31.4609 20.2852C31.4609 22.1795 31.4215 23.6003 31.3034 24.5869C31.1852 25.5736 30.9884 26.5207 30.634 27.3495C30.004 29.1254 28.744 30.3489 26.8933 31.0592C25.0427 31.7696 22.1683 32.1248 18.2701 32.1248C14.372 32.1248 11.6551 31.6907 10.1982 30.783C9.52882 30.3883 8.89882 29.6385 8.26881 28.6124L7.79631 28.6124L7.79631 31.5328L-1.54989e-09 31.5328L0 0ZM15.7895 14.8784C12.9151 14.8784 10.9857 15.1547 10.0013 15.6677C9.37132 16.0229 8.93819 16.536 8.70194 17.2069C8.46569 17.8778 8.34756 18.9828 8.34756 20.4431C8.34756 22.0217 8.50506 23.1267 8.78069 23.7976C9.05632 24.4685 9.60757 24.9026 10.4345 25.1789C11.5763 25.613 13.427 25.8103 15.947 25.8103C18.9001 25.8103 20.8295 25.4946 21.8139 24.9026C22.3258 24.5869 22.6802 24.0739 22.877 23.3635C23.0739 22.6531 23.192 21.5876 23.192 20.1668C23.192 18.746 23.0739 17.641 22.7983 16.9701C22.5227 16.2992 22.0108 15.8651 21.302 15.5494C20.1995 15.1152 18.3883 14.8784 15.8682 14.8784L15.7895 14.8784Z" fill="white"/>
</g>
<defs>
<clipPath id="clip0_421_23">
<rect width="32" height="32" fill="white"/>
</clipPath>
</defs>
</svg>
