<svg width="32" height="32" viewBox="0 0 32 32" fill="none" xmlns="http://www.w3.org/2000/svg">
<path d="M22.6958 23.8256L31.0434 23.8256C30.8071 26.2725 30.059 28.0089 28.8383 29.0745C27.7752 30.0217 26.2396 30.6531 24.2708 31.0478C22.302 31.4424 19.3489 31.6003 15.4114 31.6003C12.1826 31.6003 9.66257 31.4424 7.93005 31.1267C6.19754 30.811 4.8194 30.2585 3.79565 29.5086C2.73251 28.6798 1.98438 27.6143 1.59063 26.233C1.19688 24.8517 1 22.76 1 19.9185C1 17.7874 1.07875 16.2088 1.23625 15.1038C1.39375 13.9987 1.66938 13.0516 2.10251 12.1833C3.00814 10.4074 4.62253 9.22343 6.94567 8.71038C8.95381 8.23679 12.0645 8 16.2776 8C20.0183 8 22.617 8.1184 24.1527 8.39465C26.8696 8.86824 28.7202 9.85487 29.744 11.4335C30.7677 13.0121 31.2796 15.6168 31.2796 19.3266C31.2796 19.6817 31.2796 20.4316 31.2402 21.5761L9.38694 21.5761C9.38694 22.7206 9.46569 23.5493 9.62319 24.0229C9.78069 24.4965 10.0563 24.9306 10.4894 25.2464C11.3163 25.8778 13.2063 26.1541 16.1201 26.1541C17.9708 26.1541 19.3883 26.0751 20.2939 25.9173C21.1995 25.7594 21.8689 25.5226 22.1839 25.2069C22.4595 24.9306 22.6564 24.4571 22.7745 23.7861L22.6958 23.8256ZM22.8139 17.0376C22.8139 16.1693 22.7352 15.5379 22.6564 15.2222C22.5777 14.9064 22.4202 14.5907 22.1445 14.3145C21.4358 13.5646 19.5064 13.2094 16.3564 13.2094C13.5607 13.2094 11.6707 13.4462 10.7651 13.9593C9.85944 14.4723 9.38694 15.459 9.30819 17.0376L22.8139 17.0376Z" fill="white"/>
</svg>
