<svg width="32" height="32" viewBox="0 0 32 32" fill="none" xmlns="http://www.w3.org/2000/svg">
<path d="M1 9.59177L8.7922 9.59177L8.7922 13.024L9.22078 13.024C9.96104 11.5643 11.0519 10.5386 12.4545 9.90738C13.8571 9.27616 15.9221 9 18.5714 9C21.2208 9 23.2857 9.19725 24.8052 9.63122C26.3247 10.0652 27.5714 10.7753 28.5455 11.801C29.5584 12.8662 30.2208 14.0103 30.5325 15.2727C30.8441 16.5352 31 18.705 31 21.7822L31 31.9605L22.7403 31.9605L22.7403 21.7822C22.7403 19.9674 22.6623 18.7444 22.5454 18.1132C22.4286 17.482 22.1169 16.9297 21.6883 16.4957C20.8701 15.7067 19.039 15.3122 16.1558 15.3122C13.2727 15.3122 11.4026 15.7856 10.4675 16.8113C9.96104 17.3636 9.64935 17.9949 9.4935 18.7839C9.33766 19.5729 9.25974 20.9931 9.25974 23.0446L9.25974 32L1 32L1 9.59177Z" fill="white"/>
</svg>
