<svg width="32" height="32" viewBox="0 0 32 32" fill="none" xmlns="http://www.w3.org/2000/svg">
<g clip-path="url(#clip0_421_32)">
<path d="M15.8289 8C19.6089 8 22.4833 8.15786 24.3733 8.43412C26.2633 8.71038 27.7202 9.26289 28.7833 10.0522C29.8858 10.8415 30.634 11.9071 31.0277 13.2094C31.4215 14.5118 31.6184 16.564 31.6184 19.366C31.6184 21.4577 31.579 22.9968 31.4609 24.0624C31.3427 25.128 31.1459 26.0357 30.8309 26.8644C30.0434 28.9561 28.3896 30.2979 25.9483 30.8504C23.9008 31.324 20.5539 31.5608 15.8289 31.5608C11.6551 31.5608 8.66256 31.403 6.89068 31.1267C5.11879 30.8504 3.6619 30.219 2.55939 29.3508C1.53564 28.522 0.826878 27.3775 0.511876 26.0357C0.196873 24.6938 -1.41138e-09 22.3654 -1.08956e-09 19.0898C-9.07318e-10 17.2349 0.0787485 15.8141 0.23625 14.867C0.393751 13.9198 0.669374 13.0121 1.06313 12.2228C1.89001 10.6047 3.3469 9.49968 5.35504 8.9077C7.36318 8.31572 10.8676 8.03947 15.8289 8.03947L15.8289 8ZM15.9076 14.3145C13.1513 14.3145 11.2613 14.5118 10.3163 14.9459C9.60757 15.2616 9.09569 15.8141 8.82007 16.564C8.54444 17.3138 8.38693 18.4189 8.38693 19.9185C8.38693 21.4182 8.50506 22.4443 8.74131 23.0758C8.97756 23.7072 9.45007 24.1808 10.1588 24.4965C11.222 24.9701 13.1513 25.2464 15.9076 25.2464C19.0576 25.2464 21.1052 24.9306 21.9714 24.2597C22.8377 23.5888 23.3102 22.0891 23.3102 19.7212C23.3102 18.2215 23.1527 17.156 22.877 16.4851C22.6014 15.8141 22.0895 15.3011 21.3808 14.9854C20.3176 14.5118 18.5064 14.275 15.9076 14.275L15.9076 14.3145Z" fill="white"/>
</g>
<defs>
<clipPath id="clip0_421_32">
<rect width="32" height="32" fill="white"/>
</clipPath>
</defs>
</svg>
