<svg width="32" height="32" viewBox="0 0 32 32" fill="none" xmlns="http://www.w3.org/2000/svg">
<g clip-path="url(#clip0_421_27)">
<path d="M31.4609 32.2827L23.1133 32.2827L23.1133 20.0879L22.7589 20.0879C21.8533 21.4692 20.7508 22.4163 19.4908 22.8504C18.2308 23.2846 16.1832 23.5608 13.3482 23.5608C10.1982 23.5608 7.79631 23.403 6.18192 23.0478C4.56753 22.6926 3.26815 22.0611 2.32314 21.1929C1.45689 20.4036 0.866261 19.338 0.511883 17.9962C0.157505 16.6544 -1.45016e-09 14.76 -1.19813e-09 12.1948C-9.11196e-10 9.27436 0.196867 7.0643 0.59062 5.56461C0.984373 4.06493 1.69314 2.92044 2.67752 2.13113C3.62253 1.34182 4.92191 0.789307 6.5363 0.473584C8.15069 0.157861 10.4738 -1.03138e-09 13.5057 -1.32993e-09C16.5376 -1.62849e-09 18.5851 0.236791 19.8845 0.710376C21.1839 1.18396 22.2864 2.17059 23.192 3.59135L23.6252 3.59135L23.6252 0.552514L31.5002 0.552514L31.5002 32.2827L31.4609 32.2827ZM15.5532 6.27499C12.482 6.27499 10.5132 6.59071 9.60757 7.26163C9.13506 7.61681 8.82006 8.12986 8.62318 8.8797C8.42631 9.62955 8.34756 10.7346 8.34756 12.1553C8.34756 13.4182 8.46569 14.3654 8.66257 14.9574C8.85944 15.5494 9.25319 16.0229 9.84382 16.3387C10.8676 16.9306 12.797 17.2069 15.6714 17.2069C18.8608 17.2069 20.9083 16.8912 21.7745 16.2203C22.6408 15.5493 23.1133 14.0497 23.1133 11.7212C23.1133 10.3005 22.9952 9.23489 22.7589 8.60345C22.5227 7.972 22.0895 7.45895 21.4595 7.10376C20.5145 6.59071 18.5458 6.31446 15.5532 6.27499Z" fill="white"/>
</g>
<defs>
<clipPath id="clip0_421_27">
<rect width="32" height="32" fill="white"/>
</clipPath>
</defs>
</svg>
